<?xml version="1.0" encoding="UTF-8"?>
<svg version="1.1" xmlns="http://www.w3.org/2000/svg" width="277" height="325">
<path d="M0 0 C91.41 0 182.82 0 277 0 C277 107.25 277 214.5 277 325 C185.59 325 94.18 325 0 325 C0 217.75 0 110.5 0 0 Z " fill="#FFFFFF" transform="translate(0,0)"/>
<path d="M0 0 C6.27 0 12.54 0 19 0 C19 3.96 19 7.92 19 12 C16.69 12 14.38 12 12 12 C12 20.25 12 28.5 12 37 C20.25 37 28.5 37 37 37 C37 42.94 37 48.88 37 55 C38.98 55 40.96 55 43 55 C43 57.31 43 59.62 43 62 C53.23 62 63.46 62 74 62 C74 76.19 74 90.38 74 105 C72.02 105 70.04 105 68 105 C68 106.98 68 108.96 68 111 C64.04 111 60.08 111 56 111 C56 112.98 56 114.96 56 117 C45.77 117 35.54 117 25 117 C25 118.98 25 120.96 25 123 C8.83 123 -7.34 123 -24 123 C-24 121.02 -24 119.04 -24 117 C-34.23 117 -44.46 117 -55 117 C-55 115.02 -55 113.04 -55 111 C-56.98 111 -58.96 111 -61 111 C-61 109.02 -61 107.04 -61 105 C-62.98 105 -64.96 105 -67 105 C-67 96.75 -67 88.5 -67 80 C-65.02 80 -63.04 80 -61 80 C-61 78.02 -61 76.04 -61 74 C-53.08 74 -45.16 74 -37 74 C-37 65.75 -37 57.5 -37 49 C-35.02 49 -33.04 49 -31 49 C-31 47.02 -31 45.04 -31 43 C-28.69 43 -26.38 43 -24 43 C-24 37.06 -24 31.12 -24 25 C-20.04 25 -16.08 25 -12 25 C-12 18.73 -12 12.46 -12 6 C-8.04 6 -4.08 6 0 6 C0 4.02 0 2.04 0 0 Z " fill="#C9845E" transform="translate(141,161)"/>
<path d="M0 0 C8.25 0 16.5 0 25 0 C25 6.27 25 12.54 25 19 C23.02 19 21.04 19 19 19 C19 20.98 19 22.96 19 25 C17.02 25 15.04 25 13 25 C13 26.98 13 28.96 13 31 C8.71 31 4.42 31 0 31 C0 32.98 0 34.96 0 37 C-9.9 37 -19.8 37 -30 37 C-30 33.04 -30 29.08 -30 25 C-32.31 25 -34.62 25 -37 25 C-37 20.71 -37 16.42 -37 12 C-34.69 12 -32.38 12 -30 12 C-30 10.02 -30 8.04 -30 6 C-20.1 6 -10.2 6 0 6 C0 4.02 0 2.04 0 0 Z " fill="#D18A62" transform="translate(147,204)"/>
<path d="M0 0 C10.23 0 20.46 0 31 0 C31 14.19 31 28.38 31 43 C29.02 43 27.04 43 25 43 C25 44.98 25 46.96 25 49 C21.04 49 17.08 49 13 49 C13 50.98 13 52.96 13 55 C2.77 55 -7.46 55 -18 55 C-18 53.02 -18 51.04 -18 49 C-10.08 49 -2.16 49 6 49 C6 47.02 6 45.04 6 43 C10.29 43 14.58 43 19 43 C19 40.69 19 38.38 19 36 C20.98 36 22.96 36 25 36 C25 26.1 25 16.2 25 6 C16.75 6 8.5 6 0 6 C0 4.02 0 2.04 0 0 Z " fill="#B97A57" transform="translate(184,223)"/>
<path d="M0 0 C3.96 0 7.92 0 12 0 C12 1.98 12 3.96 12 6 C14.31 6 16.62 6 19 6 C19 4.02 19 2.04 19 0 C24.94 0 30.88 0 37 0 C37 5.94 37 11.88 37 18 C31.06 18 25.12 18 19 18 C19 19.98 19 21.96 19 24 C12.73 24 6.46 24 0 24 C0 16.08 0 8.16 0 0 Z " fill="#000000" transform="translate(178,155)"/>
<path d="M0 0 C3.96 0 7.92 0 12 0 C12 3.96 12 7.92 12 12 C13.98 12 15.96 12 18 12 C18 8.04 18 4.08 18 0 C19.98 0 21.96 0 24 0 C24 5.94 24 11.88 24 18 C20.04 18 16.08 18 12 18 C12 19.98 12 21.96 12 24 C3.75 24 -4.5 24 -13 24 C-13 18.06 -13 12.12 -13 6 C-8.71 6 -4.42 6 0 6 C0 4.02 0 2.04 0 0 Z " fill="#000000" transform="translate(74,143)"/>
<path d="M0 0 C7.92 0 15.84 0 24 0 C24 1.98 24 3.96 24 6 C18.06 6 12.12 6 6 6 C6 7.98 6 9.96 6 12 C4.02 12 2.04 12 0 12 C0 15.96 0 19.92 0 24 C1.98 24 3.96 24 6 24 C6 26.31 6 28.62 6 31 C7.98 31 9.96 31 12 31 C12 32.98 12 34.96 12 37 C20.25 37 28.5 37 37 37 C37 38.98 37 40.96 37 43 C26.77 43 16.54 43 6 43 C6 41.02 6 39.04 6 37 C4.02 37 2.04 37 0 37 C0 35.02 0 33.04 0 31 C-1.98 31 -3.96 31 -6 31 C-6 22.75 -6 14.5 -6 6 C-4.02 6 -2.04 6 0 6 C0 4.02 0 2.04 0 0 Z " fill="#B97A57" transform="translate(80,235)"/>
<path d="M0 0 C1.98 0 3.96 0 6 0 C6 6.27 6 12.54 6 19 C4.02 19 2.04 19 0 19 C0 20.98 0 22.96 0 25 C1.98 25 3.96 25 6 25 C6 26.98 6 28.96 6 31 C7.98 31 9.96 31 12 31 C12 34.96 12 38.92 12 43 C13.98 43 15.96 43 18 43 C18 49.27 18 55.54 18 62 C14.04 62 10.08 62 6 62 C6 59.69 6 57.38 6 55 C7.98 55 9.96 55 12 55 C12 53.02 12 51.04 12 49 C10.02 49 8.04 49 6 49 C6 45.04 6 41.08 6 37 C4.02 37 2.04 37 0 37 C0 35.02 0 33.04 0 31 C-1.98 31 -3.96 31 -6 31 C-6 24.73 -6 18.46 -6 12 C-4.02 12 -2.04 12 0 12 C0 8.04 0 4.08 0 0 Z " fill="#22B14C" transform="translate(129,81)"/>
<path d="M0 0 C3.96 0 7.92 0 12 0 C12 8.25 12 16.5 12 25 C10.02 25 8.04 25 6 25 C6 26.98 6 28.96 6 31 C0.06 31 -5.88 31 -12 31 C-12 27.04 -12 23.08 -12 19 C-8.04 19 -4.08 19 0 19 C0 12.73 0 6.46 0 0 Z " fill="#D18A62" transform="translate(135,173)"/>
<path d="M0 0 C1.98 0 3.96 0 6 0 C6 5.94 6 11.88 6 18 C4.02 18 2.04 18 0 18 C0 24.27 0 30.54 0 37 C1.98 37 3.96 37 6 37 C6 40.96 6 44.92 6 49 C10.29 49 14.58 49 19 49 C19 50.98 19 52.96 19 55 C12.73 55 6.46 55 0 55 C0 51.04 0 47.08 0 43 C-1.98 43 -3.96 43 -6 43 C-6 32.77 -6 22.54 -6 12 C-4.02 12 -2.04 12 0 12 C0 8.04 0 4.08 0 0 Z " fill="#22B14C" transform="translate(184,75)"/>
<path d="M0 0 C16.17 0 32.34 0 49 0 C49 1.98 49 3.96 49 6 C32.83 6 16.66 6 0 6 C0 4.02 0 2.04 0 0 Z " fill="#B97A57" transform="translate(117,278)"/>
<path d="M0 0 C1.98 0 3.96 0 6 0 C6 3.96 6 7.92 6 12 C4.02 12 2.04 12 0 12 C0 14.31 0 16.62 0 19 C-1.98 19 -3.96 19 -6 19 C-6 22.96 -6 26.92 -6 31 C-7.98 31 -9.96 31 -12 31 C-12 24.73 -12 18.46 -12 12 C-10.02 12 -8.04 12 -6 12 C-6 10.02 -6 8.04 -6 6 C-4.02 6 -2.04 6 0 6 C0 4.02 0 2.04 0 0 Z " fill="#22B14C" transform="translate(92,167)"/>
<path d="M0 0 C2.31 0 4.62 0 7 0 C7 5.94 7 11.88 7 18 C8.98 18 10.96 18 13 18 C13 22.29 13 26.58 13 31 C11.02 31 9.04 31 7 31 C7 29.02 7 27.04 7 25 C4.69 25 2.38 25 0 25 C0 16.75 0 8.5 0 0 Z " fill="#22B14C" transform="translate(67,75)"/>
<path d="M0 0 C1.98 0 3.96 0 6 0 C6 4.29 6 8.58 6 13 C7.98 13 9.96 13 12 13 C12 16.96 12 20.92 12 25 C10.02 25 8.04 25 6 25 C6 23.02 6 21.04 6 19 C4.02 19 2.04 19 0 19 C0 12.73 0 6.46 0 0 Z " fill="#22B14C" transform="translate(197,179)"/>
<path d="M0 0 C5.94 0 11.88 0 18 0 C18 1.98 18 3.96 18 6 C14.04 6 10.08 6 6 6 C6 7.98 6 9.96 6 12 C2.04 12 -1.92 12 -6 12 C-6 10.02 -6 8.04 -6 6 C-4.02 6 -2.04 6 0 6 C0 4.02 0 2.04 0 0 Z " fill="#22B14C" transform="translate(86,57)"/>
<path d="M0 0 C2.31 0 4.62 0 7 0 C7 3.96 7 7.92 7 12 C4.69 12 2.38 12 0 12 C0 14.31 0 16.62 0 19 C-1.98 19 -3.96 19 -6 19 C-6 14.71 -6 10.42 -6 6 C-4.02 6 -2.04 6 0 6 C0 4.02 0 2.04 0 0 Z " fill="#22B14C" transform="translate(110,38)"/>
<path d="M0 0 C4.29 0 8.58 0 13 0 C13 1.98 13 3.96 13 6 C8.71 6 4.42 6 0 6 C0 4.02 0 2.04 0 0 Z " fill="#FFFFFF" transform="translate(67,155)"/>
<path d="M0 0 C1.98 0 3.96 0 6 0 C6 3.96 6 7.92 6 12 C4.02 12 2.04 12 0 12 C0 8.04 0 4.08 0 0 Z " fill="#22B14C" transform="translate(135,69)"/>
<path d="M0 0 C1.98 0 3.96 0 6 0 C6 2.31 6 4.62 6 7 C4.02 7 2.04 7 0 7 C0 4.69 0 2.38 0 0 Z " fill="#000000" transform="translate(86,136)"/>
<path d="M0 0 C2.31 0 4.62 0 7 0 C7 1.98 7 3.96 7 6 C4.69 6 2.38 6 0 6 C0 4.02 0 2.04 0 0 Z " fill="#22B14C" transform="translate(190,69)"/>
<path d="M0 0 C1.98 0 3.96 0 6 0 C6 1.98 6 3.96 6 6 C4.02 6 2.04 6 0 6 C0 4.02 0 2.04 0 0 Z " fill="#22B14C" transform="translate(86,198)"/>
<path d="M0 0 C1.98 0 3.96 0 6 0 C6 1.98 6 3.96 6 6 C4.02 6 2.04 6 0 6 C0 4.02 0 2.04 0 0 Z " fill="#FFFFFF" transform="translate(184,167)"/>
<path d="M0 0 C1.98 0 3.96 0 6 0 C6 1.98 6 3.96 6 6 C4.02 6 2.04 6 0 6 C0 4.02 0 2.04 0 0 Z " fill="#FFFFFF" transform="translate(203,161)"/>
<path d="M0 0 C1.98 0 3.96 0 6 0 C6 1.98 6 3.96 6 6 C4.02 6 2.04 6 0 6 C0 4.02 0 2.04 0 0 Z " fill="#22B14C" transform="translate(80,106)"/>
<path d="M0 0 C1.98 0 3.96 0 6 0 C6 1.98 6 3.96 6 6 C4.02 6 2.04 6 0 6 C0 4.02 0 2.04 0 0 Z " fill="#22B14C" transform="translate(74,69)"/>
</svg>
